# xmcd
# 
# Track frame offsets:
#     150
#     21582
#     34875
#     48675
#     68138
#     88875
#     102000
#     122129
#     135788
#     157950
#     168507
#     181764
#     196089
#     207696
#     220418
#     233843
#     247493
#     260806
#     274775
#     287291
#     299002
#     310587
#     322947
# 
# Disc length: 4496
# 
# Revision: 0
# Processed by: cddbd v1.5.2PL0 Copyright (c) Steve Scherf et al.
# Submitted via: fre:ac v1.0.31
# 
DISCID=60118e17
DTITLE=Muddy Waters - Essential Original Albums Disc 1
DYEAR=0
DGENRE=Blues
TTITLE0=I Got My Brand On You
TTITLE1=(I'm Your) Hoochie Coochie Man
TTITLE2=Baby Please Don't
TTITLE3=Soon Forgotton
TTITLE4=Tiger In Your Tank
TTITLE5=I Feel So Good
TTITLE6=I've Got My Mojo Working (Part I)
TTITLE7=I've Got My Mojo Working (Part II)
TTITLE8=Goodbye Newport Blues
TTITLE9=Tell Me Baby
TTITLE10=Southbound Train
TTITLE11=When I Get To Thinking
TTITLE12=Just A Dream (On My Mind)
TTITLE13=Double Trouble
TTITLE14=I Feel So Good #2
TTITLE15=Baby, I Done Got Wise
TTITLE16=Moppers Blues
TTITLE17=Lonesome Road Blues
TTITLE18=Hey Hey
TTITLE19=Gipsy Woman
TTITLE20=Little Anna Mae
TTITLE21=I Can't Be Satisfied
TTITLE22=I Feel Like Going home
EXTD=
EXTT0=
EXTT1=
EXTT2=
EXTT3=
EXTT4=
EXTT5=
EXTT6=
EXTT7=
EXTT8=
EXTT9=
EXTT10=
EXTT11=
EXTT12=
EXTT13=
EXTT14=
EXTT15=
EXTT16=
EXTT17=
EXTT18=
EXTT19=
EXTT20=
EXTT21=
EXTT22=
PLAYORDER=
